<svg version="1" xmlns="http://www.w3.org/2000/svg" width="684" height="684" viewBox="0 0 513.000000 513.000000"><path d="M122.7 140.6c-.1.1-3.6.4-7.7.7-25.9 2-51.6 14.2-71 33.7-14.2 14.2-23.6 30.3-29.4 50.3-4.9 16.8-5.5 38.4-1.7 56.2 9 41.5 42.3 76.3 83.5 86.9 51.7 13.5 104.2-8.9 131-55.7l4.1-7.2h25l25-.1 1.9 3.6c8.7 16.5 21.9 31.7 37 42.4 10.6 7.6 28.9 15.8 40.1 18 7.1 1.4 8.2 1.6 12.5 2.2 5.7.8 23.4.7 29.1-.1 37.7-5.4 68.9-27.3 87.6-61.5 12.4-22.6 16.2-54.5 9.8-80.7-5.2-21-15.2-38.8-30.1-53.9-22.2-22.3-50.9-34.6-80.8-34.5-9.4 0-22.4.9-23.7 1.7-.3.2-2.1.6-4 .9-10.4 1.8-27.1 9.2-39.3 17.2-9.1 6.1-24.7 21.7-30.9 31.1-5 7.5-11.7 21-13.7 27.8l-1.2 3.9h-38.6l-1.2-4c-2.3-7.8-11-24.1-17.4-32.6-17.7-23.4-43-39-72.1-44.4-6.5-1.2-23-2.5-23.8-1.9zM141 210c11.9 3.6 22.7 12.8 28.5 24.3 4.2 8.2 4.6 10.8.8 5.2-5.9-8.8-13.7-13.5-23.7-14.2-9.9-.8-17.1 1.5-23.6 7.4-16.5 14.8-13.6 41 5.7 51.5 14.6 8 32.2 3.5 41.7-10.6 3.8-5.6 3.2-2.5-1 5.5-8 15.2-24.2 25.6-41 26.2-38.7 1.6-64.1-40.3-44.6-73.3 11.8-20 34.8-28.9 57.2-22zm257.1-1c9.5 2.3 16 5.9 23 12.9 6.2 6.3 12.9 17.2 12.9 21 0 .9-.8.1-1.7-1.7-2.2-4.4-8.6-10.5-14.1-13.2-6.3-3.2-16.3-3.8-23.8-1.4-8.1 2.5-17.1 11.5-19.8 19.6-5 15 2.1 32.2 16 38.7 16 7.5 33.8 1.6 42.2-14.1 3.1-5.9 1.7-.8-2.1 7.2-3.8 8.2-13.9 18.5-21.9 22.3-22.9 11.1-49.9 3.5-63.2-17.7-7.3-11.5-9.3-23-6.5-36.4 5.5-26.6 32.3-43.5 59-37.2z"/></svg>